<svg width="1151" height="1237" viewBox="0 0 1151 1237" fill="none" xmlns="http://www.w3.org/2000/svg">
<path d="M354.633 0.102997L881.963 0L883.483 170.737C883.533 177.467 883.353 184.679 883.673 191.356C886.363 247.004 881.323 302.103 877.973 357.658L869.703 505.083C867.983 533.598 865.323 564.225 864.503 592.601C870.263 589.061 873.563 587.799 879.913 585.257C883.323 586.644 886.463 588.303 889.743 589.959C902.583 585.002 918.763 584.982 932.163 587.748C934.183 587.82 939.353 591.641 940.853 591.346C957.473 588.089 955.943 588.719 968.343 600.564C992.343 593.025 991.393 602.037 1007.47 614.031C1015.72 620.188 1026.57 624.873 1035.81 632.072C1031.86 637.067 1028.86 640.56 1032.58 646.985L1035.94 646.704C1042.06 643.502 1043.58 631.438 1047.21 625.432C1049.08 622.348 1051.36 619.478 1053.59 616.662C1052.72 611.641 1051.38 607.676 1054.23 603.527C1061.87 600.119 1062.93 605.586 1071.07 606.453L1072.15 605.16C1071.51 599.01 1053.59 589.532 1046.58 579.869C1042.76 578.68 1041.99 578.557 1038.68 576.467C1036.31 573.193 1035.42 571.553 1038.09 568.244C1047.23 565.653 1060.75 576.883 1066.67 582.691C1082.18 597.886 1099.78 605.42 1118.55 615.191C1124.27 618.168 1131.4 627.27 1137.33 631.061C1142.23 634.192 1147.64 634.844 1150.34 640.007C1148.79 644.221 1141 651.728 1137.63 655.319C1117.4 658.058 1121.12 668.525 1107.36 681.419C1080.04 707.035 1048.67 727.322 1022.23 753.834C1012.62 763.474 992.113 771.624 980.883 780.162C964.193 792.849 949.373 807.101 932.013 818.657C923.193 823.882 899.043 831.729 887.883 835.995C882.213 842.731 879.123 848.178 875.073 855.913C878.963 859.813 880.123 861.333 883.293 865.823C878.993 872.713 877.283 885.283 870.103 888.503C863.913 891.273 864.673 892.643 862.403 898.383C866.683 913.813 869.603 912.013 877.883 925.203C878.363 925.963 878.243 930.813 878.263 932.183C878.303 935.193 883.563 937.763 885.643 940.223C887.533 942.463 887.923 943.363 888.143 946.473C888.383 949.893 883.323 954.463 883.083 957.513C882.633 963.433 883.423 969.863 883.383 975.793C883.363 978.893 882.583 980.273 880.483 982.333C874.243 985.133 870.593 983.173 864.033 981.183C853.303 988.153 848.463 998.863 839.533 1007.85C836.823 1010.58 831.863 1014.03 828.633 1016.3C828.693 1016.96 828.753 1017.62 828.813 1018.28C829.103 1021.94 829.633 1026 827.263 1028.78C815.623 1022.53 813.333 1024.64 805.693 1033.69C787.403 1024.71 792.843 1031.32 783.913 1041.71C777.743 1037.77 773.483 1032.61 766.013 1033.02C760.193 1037.15 765.203 1042.97 767.083 1047.57C765.873 1054.23 761.943 1052.62 762.323 1058.53C765.683 1063.5 771.523 1060.35 774.733 1067.48C773.003 1081.47 778.193 1075.1 781.123 1083.94C772.513 1100.44 733.763 1084.86 720.983 1128L718.933 1129.15C716.123 1138.38 720.063 1139.29 717.583 1144.55C714.513 1146.9 709.543 1146.54 705.363 1146.78C702.683 1143.95 699.193 1140.03 695.193 1139.97C677.553 1139.71 666.193 1155.35 654.433 1165.75C651.123 1168.68 639.383 1173.85 636.253 1177.74C625.893 1190.62 626.103 1193.57 612.783 1204.29C609.923 1215.9 613.883 1230.26 611.683 1236.97C608.633 1236.52 585.273 1225.1 579.783 1222.79C566.473 1217.19 553.063 1212.17 539.523 1206.84C529.113 1202.74 516.823 1195.97 506.143 1192.62C484.043 1185.68 457.723 1180.36 434.493 1180.15C425.353 1180.07 410.203 1183.12 401.973 1182.98C385.563 1182.69 363.663 1183.84 348.183 1183.16C339.673 1182.78 301.803 1181.39 295.943 1179.92C263.063 1171.67 222.583 1154.09 191.493 1139.08C185.213 1136.06 169.013 1121.67 161.425 1117.2C152.264 1111.8 143.225 1108.19 134.626 1103.22C128.813 1099.86 118.14 1089.7 111.937 1085.34C102.67 1078.84 93.4 1071.87 84.362 1065.18C75.525 1058.65 72.211 1050.93 65.905 1046.01C44.729 1029.49 18.431 1013.3 0 993.923C1.985 991.733 7.73699 985.443 9.00299 983.193C15.727 971.223 10.862 970.673 20.699 960.243C22.191 940.073 14.549 925.353 14.675 905.473C14.71 899.893 24.55 898.303 25.275 892.333C26.687 880.693 16.587 856.783 36.023 855.983C38.893 855.853 44.253 845.188 46.27 841.917C40.397 825.323 32.252 817.417 21.162 804.393C15.335 797.55 11.868 789.434 4.703 783.452C21.77 749.682 47.337 708.173 66.569 675.029C93.063 629.37 119.096 582.413 145.781 537.063C178.933 536.675 214.553 537.922 248.123 537.961L512.263 537.873L517.053 533.49C517.713 529.86 515.473 530.502 512.343 525.385C513.693 522.495 514.083 523.156 517.933 521.398C519.613 518.097 515.393 519.861 514.013 513.988C517.563 510.203 517.853 513.181 519.713 508.005C519.113 502.521 508.363 495.567 512.763 485.94C514.833 481.387 519.113 484.803 521.343 479.595C519.493 477.263 519.143 476.919 517.973 474.23C519.593 470.745 521.133 470.805 525.133 468.632L525.713 466.492C518.433 454.311 535.623 456.043 532.613 447.67C530.043 446.517 528.093 446.045 526.643 443.711L527.203 441.425C529.363 440.181 530.623 439.731 531.923 437.605C528.463 426.053 511.723 431.717 506.713 426.455C506.603 422.616 506.793 421.62 505.443 418.135C496.943 409.32 494.663 422.791 488.103 411.961C481.883 409.254 470.213 414.824 463.423 407.888L463.983 406.558C466.213 405.068 468.093 404.238 469.113 401.843C466.483 399.223 462.383 399.959 458.083 398.172C457.713 393.521 463.303 386.306 462.713 383.352C459.783 368.647 449.973 382.082 451.303 362.546C451.793 355.388 438.153 335.24 431.603 331.661C422.593 324.914 417.323 325.977 413.603 313.818C411.193 311.545 412.613 312.36 408.973 311.755C407.353 312.56 403.773 314.458 402.043 313.482C394.923 309.472 373.983 301.748 370.033 295.136C368.483 292.563 368.073 285.421 365.323 280.487C362.433 278.703 363.863 278.854 360.953 279.517C359.093 283.705 360.293 283.216 360.503 288.469C358.403 290.472 359.643 289.892 356.563 290.038C352.873 287.059 350.923 284.099 346.773 281.967C341.913 279.469 332.273 278.227 328.583 274.253C328.703 273.683 329.403 270.202 329.053 269.86C314.113 255.283 320.893 244.646 297.673 241.225C283.733 223.191 288.303 222.858 269.593 207.134C273.443 188.542 260.503 189.709 246.903 192.597C238.093 173.928 234.033 188.165 221.943 168.414C236.123 167.767 253.843 168.22 268.363 168.232L355.163 168.39C354.113 112.696 355.493 56.111 354.633 0.102997Z" fill="#808080"/>
</svg>
