<?xml version="1.0" encoding="UTF-8"?>
<svg id="OBJECTS" xmlns="http://www.w3.org/2000/svg" viewBox="0 0 500 500">
  <defs>
    <style>
      .cls-1, .cls-2, .cls-3, .cls-4 {
        stroke-linecap: round;
        stroke-linejoin: round;
      }

      .cls-1, .cls-2, .cls-5 {
        stroke: #1c316b;
      }

      .cls-1, .cls-6, .cls-3, .cls-5 {
        fill: none;
      }

      .cls-2, .cls-7 {
        fill: #1c316b;
      }

      .cls-8, .cls-6, .cls-4 {
        stroke: #084734;
      }

      .cls-8, .cls-6, .cls-5 {
        stroke-miterlimit: 10;
      }

      .cls-8, .cls-4 {
        fill: #fff;
      }

      .cls-9 {
        fill: #97ce16;
      }

      .cls-10 {
        fill: #0f8863;
      }

      .cls-11 {
        fill: #17c893;
      }

      .cls-3 {
        stroke: #fff;
      }
    </style>
  </defs>
  <g>
    <polyline class="cls-6" points="32.05 468.21 187.32 251.98 303.61 365.61 375.2 302.17 461.78 469.12"/>
    <polyline class="cls-6" points="149.61 305.2 164.11 297.47 169.61 312.93 186.12 281.29 198.62 296.76 205.12 286.92 221.62 301.68 229.37 292.25"/>
    <polyline class="cls-6" points="339.73 334.65 350.86 344.11 363.74 332.18 377.79 351.93 382.18 344.53 388.04 356.05 393.6 338.35"/>
  </g>
  <g>
    <g>
      <path class="cls-9" d="M194.8,349.58s12.14-25.24,16.43-26.91c4.29-1.67,1.43,7.38-.95,13.1-2.38,5.71-5.71,15.48-5.71,15.48l-9.76-1.67Z"/>
      <path class="cls-1" d="M198.17,345.07s5.67,2.43,6.07.94c.4-1.48-4.45-2.29-6.07-.94Z"/>
      <path class="cls-1" d="M201.94,338.86l5.53.4s.27-2.16-1.75-2.16-5.26,1.08-3.78,1.75Z"/>
      <path class="cls-1" d="M205.18,332.79l4.59-.27s1.48-1.35-.67-1.21c-2.16.13-3.91.81-3.91,1.48Z"/>
    </g>
    <g>
      <path class="cls-9" d="M190,354.16s4.92-27.57,8.6-30.33c3.68-2.76,3.36,6.73,2.6,12.87-.76,6.14-1.35,16.44-1.35,16.44l-9.85,1.02Z"/>
      <path class="cls-4" d="M192.04,348.91s6.11.82,6.1-.72-4.9-1.01-6.1.72Z"/>
      <path class="cls-1" d="M194.01,341.92l5.44-1.1s-.32-2.15-2.27-1.61c-1.95.54-4.78,2.45-3.17,2.7Z"/>
      <path class="cls-1" d="M195.5,335.21l4.35-1.49s1.07-1.7-.98-.99c-2.04.71-3.55,1.83-3.37,2.48Z"/>
    </g>
    <g>
      <path class="cls-4" d="M278.17,367.01s-14.52,24.05-12.6,29.75c15.57,46.19,15.57,51.79,15.57,51.79,0,0-7.17,5.42-9.8,6.82-2.62,1.4-5.42,2.27-3.5,3.15,1.92.87,7.35,1.05,11.02-.35,3.27-1.25,6.3-2.27,9.1-2.27s2.27-3.85,1.05-6.47c-1.22-2.62-2.27-4.72-2.27-4.72,0,0-.7-8.4-1.22-11.9-.52-3.5-4.2-37.97-4.2-37.97l25.9-26.07-29.05-1.75Z"/>
      <path class="cls-9" d="M279.25,449.96c-2.31,1.71-6.14,4.47-7.9,5.41-2.62,1.4-5.42,2.27-3.5,3.15,1.92.87,7.35,1.05,11.02-.35,3.27-1.25,6.3-2.27,9.1-2.27,2.52,0,2.34-3.11,1.39-5.65-3.61,2.15-8.22,2.15-8.22,2.15l-1.9-2.44Z"/>
    </g>
    <path class="cls-9" d="M246.15,257.2s-3.51,1.1,2.59,5.31c6.1,4.22,21.84,6.45,21.84,6.45l3.1-5.5s-17.04-10.93-27.53-6.27Z"/>
    <g>
      <path class="cls-2" d="M328.91,393.22c-20.97,0-37.97,17-37.97,37.97s17,37.97,37.97,37.97,37.97-17,37.97-37.97-17-37.97-37.97-37.97ZM328.91,462.96c-17.55,0-31.77-14.22-31.77-31.77s14.22-31.77,31.77-31.77,31.77,14.22,31.77,31.77-14.22,31.77-31.77,31.77Z"/>
      <path class="cls-4" d="M328.91,396.31c-19.26,0-34.88,15.62-34.88,34.88s15.62,34.88,34.88,34.88,34.88-15.62,34.88-34.88-15.62-34.88-34.88-34.88ZM328.91,462.96c-17.55,0-31.77-14.22-31.77-31.77s14.22-31.77,31.77-31.77,31.77,14.22,31.77,31.77-14.22,31.77-31.77,31.77Z"/>
    </g>
    <path class="cls-4" d="M301.79,402.87c.22-.21.43-.43.66-.64,15.92-14.81,40.83-13.91,55.64,2.02,1.57,1.69,2.96,3.49,4.18,5.36h.09s3.56.88,3.56.88c-1.6-2.85-3.55-5.55-5.87-8.05-15.81-17-42.4-17.96-59.4-2.15-2.16,2.01-4.06,4.2-5.7,6.51l6.86-3.92Z"/>
    <g>
      <path class="cls-2" d="M198.91,393.22c-20.97,0-37.97,17-37.97,37.97s17,37.97,37.97,37.97,37.97-17,37.97-37.97-17-37.97-37.97-37.97ZM198.91,462.96c-17.55,0-31.77-14.22-31.77-31.77s14.22-31.77,31.77-31.77,31.77,14.22,31.77,31.77-14.22,31.77-31.77,31.77Z"/>
      <path class="cls-4" d="M198.91,396.31c-19.26,0-34.88,15.62-34.88,34.88s15.62,34.88,34.88,34.88,34.88-15.62,34.88-34.88-15.62-34.88-34.88-34.88ZM198.91,462.96c-17.55,0-31.77-14.22-31.77-31.77s14.22-31.77,31.77-31.77,31.77,14.22,31.77,31.77-14.22,31.77-31.77,31.77Z"/>
    </g>
    <path class="cls-4" d="M197.99,391.85c.31,0,.61-.02.92-.02,21.74,0,39.37,17.63,39.37,39.37,0,2.31-.21,4.57-.59,6.77l.07.06,2,3.07c.77-3.17,1.18-6.49,1.18-9.9,0-23.21-18.82-42.03-42.03-42.03-2.95,0-5.83.31-8.61.89l7.69,1.8Z"/>
    <rect class="cls-7" x="277.96" y="456.77" width="11.26" height="2.93"/>
    <path class="cls-4" d="M284.2,458.76l-4.51-12.77c-.32-.9-1.3-1.38-2.22-1.09h0c-1.02.32-1.51,1.46-1.05,2.42l5.56,11.44h2.21Z"/>
    <circle class="cls-4" cx="275.75" cy="438.84" r="11.11" transform="translate(-239.44 495.41) rotate(-64.12)"/>
    <path class="cls-11" d="M331.18,429.7l-.03-.05c-.09-.24-.22-.45-.39-.62l-33.86-53.34c-.35-.55-.99-.85-1.64-.76-.65.09-1.19.54-1.38,1.16l-18.98,60.9c-27.92-20.74-54.49-69.13-54.76-69.63-.03-.06-.08-.12-.12-.17.59-3.46,1.09-6.92,1.47-10.35l-3.5-1.4s-3.85,36.22-19.95,76.29c0,0,0,2.1,2.62-1.57,2.22-3.11,12.94-29.71,18.42-57.84,2.78,4.83,8.46,14.36,15.85,25.01,14.26,20.57,27.73,35.32,40.05,43.86.28.2.62.3.95.3.1,0,.2,0,.29-.03l52.68-9.41c.52.31,1.2.33,1.75-.02.78-.5,1.01-1.53.52-2.32ZM278.19,437.69l17.81-57.15,30.77,48.48-48.58,8.67Z"/>
    <path class="cls-4" d="M278.93,308.76l-20.76,18.45s-10.52,10.09-17.44,14.85c-6.92,4.76-13.55,8.07-15.42,8.79s-4.32.14-4.9,1.44l-.58,1.3,15.28.86,47.42-41.8-3.6-3.89Z"/>
    <g>
      <path class="cls-9" d="M279.18,299.67s-7.12,15.54-5.79,21.36c1.33,5.82,11.06,23.36,11.06,23.36l22.27-9.09s.07-14.08-1.39-25.98c-1.47-11.9-4.04-18.33-8.83-22.2-4.78-3.87-10.03,2.08-10.03,2.08l-7.29,10.47Z"/>
      <line class="cls-1" x1="286.59" y1="314.78" x2="300.93" y2="321.33"/>
      <path class="cls-1" d="M301.17,326.9c1,.6,1.84,1.06,2.41,1.29"/>
      <path class="cls-1" d="M285.04,315.72s8.41,6.23,14.15,9.94"/>
    </g>
    <path class="cls-2" d="M286.48,289.2s4.59,7.76,9.21,8.43c4.62.66,9.31-1.93,10.28.36.97,2.29,6.2,11.29,12.14,9.94,5.94-1.35,10.93-7.36,11.82-5.43.9,1.93-1.15,3.47.41,4.4,1.56.92,5.44-2,5.44-2,0,0-3.17.91-2.57-1.58.6-2.49,3.58-7.96.05-14.2-3.53-6.24-15.95-3.67-20.03-2.33-4.08,1.34-4.84-1.12-4.84-1.12,0,0-4.88-4.34-12.93-10.15-8.05-5.8-14.31-9.61-16.19-10.84-1.87-1.23-2.41.37-2.46,3.75-.05,3.37,3.41,13.49,5.51,15.79,2.1,2.31,4.15,4.99,4.15,4.99Z"/>
    <g>
      <g>
        <path class="cls-4" d="M269.95,262.25s-1.68,2.71-2.1,4.92c-.42,2.2-1.62,4.82-2.59,5.52-.98.7-3.51,1.1-3.26,1.67.24.57,3.68,2.73,3.68,2.73,0,0,1.62,12.16,2.89,12.27,1.27.11,7.4-.46,7.4-.46l3.23,10.79,7.29-10.47-1.67-10.48s3.4-2.2,3.87-4.16-3.04-4.47-4.69-4.01c-1.65.47-3.28,3.42-3.28,3.42,0,0-.02-6.1-.12-6.57s-10.65-5.14-10.65-5.14Z"/>
        <polygon class="cls-2" points="275.96 288.89 280.96 285.8 276.94 291.71 275.96 288.89"/>
      </g>
      <path class="cls-1" d="M268.38,278.75s3.54.26,5.87-2.33"/>
      <path class="cls-1" d="M268.98,271.41s.63-1.75,3.39-.45"/>
      <path class="cls-1" d="M269.19,267.01s1.75-2.35,4.38.71"/>
    </g>
    <g>
      <path class="cls-9" d="M246.15,257.2s1.55-3.17,21.32,6.31c19.76,9.48,40.72,22.32,41.35,22.94.63.62-11.81-17.97-11.81-17.97,0,0,3.14-13.1,2.12-15-1.02-1.91-13.7-7.87-16.91-8.33-3.21-.46-14.24,11.79-14.24,11.79,0,0-14.82-3.17-21.82.27Z"/>
      <polygon class="cls-2" points="267.97 256.93 297 268.47 297.61 265.53 270.1 254.9 267.97 256.93"/>
    </g>
    <g>
      <path class="cls-4" d="M218.86,352.45l-3.85,1.92h0c-.1,1.32.72,2.54,1.99,2.93,2.25.69,5.57,1.76,6.59,2.32,1.57.87,4.2,5.6,4.9,5.42.7-.18.7-.87.17-2.62-.52-1.75-2.62-4.37-2.62-4.37l15.75,2.45s1.75-.52,2.27-2.45c.52-1.92-.87-2.8-.87-2.8l-24.32-2.8Z"/>
      <path class="cls-2" d="M243.18,355.25l-9.72-1.12c-1.22.96-2.69,2.58-2.37,4.67,0,.01,0,.03,0,.04l10.67,1.66s1.75-.52,2.27-2.45c.52-1.92-.87-2.8-.87-2.8Z"/>
    </g>
    <path class="cls-4" d="M277.47,311.16l-15.18,15.39s-3.94,3.5-7.73,7.08-13.23,13.81-13.23,13.81c0,0-11.5,6.09-11.29,6.94.21.84-.63,3.58,1.05,4.43,1.69.84,4.43,1.26,5.06.84.63-.42-.42-1.9.21-2.95.63-1.05,2.53-.42,4.43-1.26,1.9-.84,2.74-4.01,2.95-4.85.21-.84,23.7-14.98,28.34-19.51,4.64-4.53,17.99-16.83,17.99-16.83l-12.6-3.09Z"/>
    <path class="cls-9" d="M298.98,298.3s-5.48-4.43-9.7-3.79c-4.22.63-14.34,17.71-14.34,17.71l16.23,5.27,10.12-13.7"/>
    <path class="cls-2" d="M284.45,344.39l-8.34,28.95,18.63,4.49s16.3-1,23.29-6.15c6.99-5.16,2.66-19.96-1.5-26.11-4.16-6.15-9.81-10.26-9.81-10.26l-22.27,9.09Z"/>
    <g>
      <path class="cls-4" d="M285.76,355.87s-42.91,5.66-44.74,8.82c-1.83,3.16,25.95,52.56,26.78,53.73.83,1.16,1.33,4.16,1.33,4.16l-8.82,3.49s-7.32.33-6.15,2.16c1.16,1.83,11.31,1.83,15.47,2.5,4.16.67,8.32,1.5,9.65.17,1.33-1.33.83-2.66-.17-4.49s-3.33-5.32-3.66-5.99c-.33-.67-6.82-19.63-7.65-25.28-.83-5.66-6.15-20.79-6.15-20.79,0,0,23.95,4.32,33.1,3.49l-8.98-21.96Z"/>
      <path class="cls-9" d="M269.42,424.72l-1.04-1.85-8.07,3.2s-7.32.33-6.15,2.16c1.16,1.83,11.31,1.83,15.47,2.5,4.16.67,8.32,1.5,9.65.17,1.33-1.33.83-2.66-.17-4.49-.18-.33-.41-.72-.66-1.14-4.7.58-9.02-.55-9.02-.55Z"/>
    </g>
    <polygon class="cls-4" points="284.09 355.04 291.08 380.49 297.9 379.66 292.08 354.05 284.09 355.04"/>
    <path class="cls-3" d="M292.79,354.52s9.11-1.31,15.43-1.31"/>
    <g>
      <path class="cls-3" d="M305.23,350.59c-2.53.31-5.35.75-7,1.3"/>
      <path class="cls-1" d="M310.54,350.05s-1.04.08-2.56.23"/>
    </g>
    <g>
      <polygon class="cls-4" points="177.41 359.58 182.41 344.82 211.94 348.39 207.42 365.29 177.41 359.58"/>
      <polygon class="cls-4" points="202.18 347.2 199.32 363.15 207.42 365.29 211.94 348.39 202.18 347.2"/>
    </g>
    <line class="cls-1" x1="185.58" y1="388.59" x2="198.92" y2="430.68"/>
    <line class="cls-1" x1="211.77" y1="388.59" x2="176.59" y2="388.59"/>
    <path class="cls-4" d="M270.45,432.18l4.41,9.2c.27.56.97.82,1.58.58h0c.68-.27.95-1.03.58-1.62l-4.8-7.6-1.75-.56Z"/>
    <rect class="cls-7" x="266.05" y="430.49" width="11.26" height="2.93"/>
    <line class="cls-1" x1="329.1" y1="430.77" x2="355.05" y2="401.07"/>
    <path class="cls-4" d="M333.05,430.77c0-2.18-1.77-3.95-3.94-3.95s-3.95,1.77-3.95,3.95,1.77,3.94,3.95,3.94,3.94-1.77,3.94-3.94Z"/>
    <path class="cls-4" d="M202.34,430.77c0-2.18-1.77-3.95-3.95-3.95s-3.94,1.77-3.94,3.95,1.77,3.94,3.94,3.94,3.95-1.77,3.95-3.94Z"/>
    <path class="cls-10" d="M202.18,347.2s5.28-5.15,8.01-7.07c2.72-1.92,1.12.32,1.6,1.6s-1.76-.8,5.28-.32c7.05.48,2.56,3.2,2.56,3.2,0,0,2.88-1.44,6.09,1.44,3.2,2.88-1.29,4.78-.4,4.79.88,0,5.37,2.73,3.77,4.97s-6.25-2.08-6.73-1.44c-.48.64,1.3,2.98-.87,2.45-2.17-.53-5.37-4.37-6.65-5.65s2.12,4.48.18,3.2c-1.94-1.28-5.94-5.76-7.07-6.73-1.12-.96-2.83-.23-2.83-.23l-2.93-.22Z"/>
    <g>
      <polygon class="cls-4" points="170 356.94 180.12 388.75 209.52 388.75 211.29 356.62 170 356.94"/>
      <g>
        <path class="cls-4" d="M210.81,358.07l-40.65.15c-.89,0-1.61-.72-1.61-1.61h0c0-.89.72-1.6,1.6-1.61l40.65-.15c.89,0,1.61.72,1.61,1.61h0c0,.89-.72,1.6-1.6,1.61Z"/>
        <g>
          <line class="cls-1" x1="171.61" y1="357.77" x2="174.77" y2="355.18"/>
          <line class="cls-1" x1="176.1" y1="357.77" x2="179.27" y2="355.18"/>
          <line class="cls-1" x1="180.59" y1="357.77" x2="183.76" y2="355.18"/>
          <line class="cls-1" x1="185.09" y1="357.77" x2="188.26" y2="355.18"/>
          <line class="cls-1" x1="189.58" y1="357.77" x2="192.75" y2="355.18"/>
          <line class="cls-1" x1="194.07" y1="357.77" x2="197.24" y2="355.18"/>
          <line class="cls-1" x1="198.57" y1="357.77" x2="201.74" y2="355.18"/>
          <line class="cls-1" x1="203.06" y1="357.77" x2="206.23" y2="355.18"/>
          <line class="cls-1" x1="207.56" y1="357.77" x2="210.73" y2="355.18"/>
        </g>
      </g>
      <g>
        <line class="cls-1" x1="175.55" y1="362.1" x2="176.55" y2="365.63"/>
        <line class="cls-1" x1="177.04" y1="362.18" x2="178.05" y2="365.71"/>
        <line class="cls-1" x1="178.53" y1="362.25" x2="179.54" y2="365.78"/>
        <line class="cls-1" x1="180.25" y1="362.5" x2="183.01" y2="362.5"/>
        <line class="cls-1" x1="180.62" y1="363.84" x2="183.39" y2="363.84"/>
        <line class="cls-1" x1="181" y1="365.18" x2="183.76" y2="365.18"/>
      </g>
      <g>
        <line class="cls-1" x1="181.07" y1="366.81" x2="182.08" y2="370.34"/>
        <line class="cls-1" x1="182.57" y1="366.88" x2="183.57" y2="370.41"/>
        <line class="cls-1" x1="184.06" y1="366.96" x2="185.07" y2="370.49"/>
        <line class="cls-1" x1="185.78" y1="367.2" x2="188.54" y2="367.2"/>
        <line class="cls-1" x1="186.15" y1="368.54" x2="188.91" y2="368.54"/>
        <line class="cls-1" x1="186.52" y1="369.89" x2="189.29" y2="369.89"/>
      </g>
      <g>
        <line class="cls-1" x1="178.31" y1="371.89" x2="179.32" y2="375.41"/>
        <line class="cls-1" x1="179.8" y1="371.96" x2="180.81" y2="375.49"/>
        <line class="cls-1" x1="181.3" y1="372.04" x2="182.3" y2="375.56"/>
        <line class="cls-1" x1="183.01" y1="372.28" x2="185.78" y2="372.28"/>
        <line class="cls-1" x1="183.39" y1="373.62" x2="186.15" y2="373.62"/>
        <line class="cls-1" x1="183.76" y1="374.97" x2="186.52" y2="374.97"/>
      </g>
      <g>
        <line class="cls-1" x1="199.22" y1="382.19" x2="200.22" y2="385.72"/>
        <line class="cls-1" x1="200.71" y1="382.26" x2="201.72" y2="385.79"/>
        <line class="cls-1" x1="202.2" y1="382.34" x2="203.21" y2="385.87"/>
        <line class="cls-1" x1="203.92" y1="382.58" x2="206.68" y2="382.58"/>
        <line class="cls-1" x1="204.29" y1="383.93" x2="207.06" y2="383.93"/>
        <line class="cls-1" x1="204.67" y1="385.27" x2="207.43" y2="385.27"/>
      </g>
    </g>
  </g>
  <g>
    <g>
      <path class="cls-11" d="M142.55,354.53c0,20.17-11.93,36.52-26.65,36.52s-26.65-16.35-26.65-36.52,11.93-89.49,26.65-89.49,26.65,69.32,26.65,89.49Z"/>
      <polygon class="cls-7" points="130.85 365.08 122.78 368.07 124.4 363.21 120.54 368.9 116.69 370.32 116.41 354.37 130.43 335.74 122.92 343.26 124.19 338.03 120.59 345.58 116.33 349.84 115.9 324.92 114.38 361.27 101.09 347.19 108.39 357.11 101.51 356.34 110.01 359.31 114.22 365.03 113.48 382.56 108.58 379.23 113.33 386.18 111.08 469.71 117.88 469.71 116.73 372.86 130.85 365.08"/>
      <g>
        <path class="cls-8" d="M130.56,325s.25,2.45-1.09,4.25c-1.34,1.8-3.75,2.26-3.75,2.26,0,0-.25-2.45,1.09-4.25,1.34-1.8,3.75-2.26,3.75-2.26Z"/>
        <path class="cls-8" d="M138.6,336.28s.25,2.45-1.09,4.25c-1.34,1.8-3.75,2.26-3.75,2.26,0,0-.25-2.45,1.09-4.25,1.34-1.8,3.75-2.26,3.75-2.26Z"/>
        <path class="cls-8" d="M138.59,358.26s-.59,2.39-2.46,3.63c-1.87,1.24-4.3.87-4.3.87,0,0,.59-2.39,2.46-3.63s4.3-.87,4.3-.87Z"/>
        <path class="cls-8" d="M94.48,358.26s.59,2.39,2.46,3.63c1.87,1.24,4.3.87,4.3.87,0,0-.59-2.39-2.46-3.63-1.87-1.24-4.3-.87-4.3-.87Z"/>
        <path class="cls-8" d="M129.32,349.13s.25,2.45-1.09,4.25c-1.34,1.8-3.75,2.26-3.75,2.26,0,0-.25-2.45,1.09-4.25,1.34-1.8,3.75-2.26,3.75-2.26Z"/>
        <path class="cls-8" d="M127.23,312.72s.25,2.45-1.09,4.25c-1.34,1.8-3.75,2.26-3.75,2.26,0,0-.25-2.45,1.09-4.25,1.34-1.8,3.75-2.26,3.75-2.26Z"/>
        <path class="cls-8" d="M122.45,322.08s.25,2.45-1.09,4.25c-1.34,1.8-3.75,2.26-3.75,2.26,0,0-.25-2.45,1.09-4.25,1.34-1.8,3.75-2.26,3.75-2.26Z"/>
        <path class="cls-8" d="M133.81,315.27s.25,2.45-1.09,4.25c-1.34,1.8-3.75,2.26-3.75,2.26,0,0-.25-2.45,1.09-4.25,1.34-1.8,3.75-2.26,3.75-2.26Z"/>
        <path class="cls-8" d="M96.89,315.27s-.25,2.45,1.09,4.25c1.34,1.8,3.75,2.26,3.75,2.26,0,0,.25-2.45-1.09-4.25-1.34-1.8-3.75-2.26-3.75-2.26Z"/>
        <path class="cls-8" d="M128.27,301.27s.25,2.45-1.09,4.25c-1.34,1.8-3.75,2.26-3.75,2.26,0,0-.25-2.45,1.09-4.25,1.34-1.8,3.75-2.26,3.75-2.26Z"/>
        <path class="cls-8" d="M125.92,289.12s.85,2.31,0,4.38-3.07,3.13-3.07,3.13c0,0-.85-2.31,0-4.38.84-2.08,3.07-3.13,3.07-3.13Z"/>
        <path class="cls-8" d="M109.07,285.94s2.18,1.14,2.94,3.25c.76,2.11-.18,4.38-.18,4.38,0,0-2.18-1.14-2.94-3.25-.76-2.11.18-4.38.18-4.38Z"/>
        <path class="cls-8" d="M116.93,300.48s1.55,1.91,1.42,4.15-1.89,3.96-1.89,3.96c0,0-1.55-1.91-1.42-4.15s1.89-3.96,1.89-3.96Z"/>
        <path class="cls-8" d="M116.51,278.84s1.55,1.91,1.42,4.15c-.13,2.24-1.89,3.96-1.89,3.96,0,0-1.55-1.91-1.42-4.15.13-2.24,1.89-3.96,1.89-3.96Z"/>
        <path class="cls-8" d="M98.87,325s-.25,2.45,1.09,4.25c1.34,1.8,3.75,2.26,3.75,2.26,0,0,.25-2.45-1.09-4.25-1.34-1.8-3.75-2.26-3.75-2.26Z"/>
        <path class="cls-8" d="M94.3,338.31s-.25,2.45,1.09,4.25c1.34,1.8,3.75,2.26,3.75,2.26,0,0,.25-2.45-1.09-4.25-1.34-1.8-3.75-2.26-3.75-2.26Z"/>
        <path class="cls-8" d="M106.45,343.15s-.25,2.45,1.09,4.25c1.34,1.8,3.75,2.26,3.75,2.26,0,0,.25-2.45-1.09-4.25-1.34-1.8-3.75-2.26-3.75-2.26Z"/>
        <path class="cls-8" d="M109.77,324.7s-.94,2.28-.17,4.38c.77,2.11,2.95,3.24,2.95,3.24,0,0,.94-2.28.17-4.38-.77-2.11-2.95-3.24-2.95-3.24Z"/>
        <path class="cls-8" d="M101.17,373.8s2.46.05,4.14-1.44c1.68-1.48,1.95-3.93,1.95-3.93,0,0-2.46-.04-4.14,1.44-1.68,1.48-1.95,3.93-1.95,3.93Z"/>
        <path class="cls-8" d="M124.78,371.11s.67,2.37,2.57,3.55c1.9,1.18,4.32.73,4.32.73,0,0-.67-2.37-2.57-3.55-1.9-1.18-4.32-.73-4.32-.73Z"/>
        <path class="cls-8" d="M103.91,312.72s-.25,2.45,1.09,4.25c1.34,1.8,3.75,2.26,3.75,2.26,0,0,.25-2.45-1.09-4.25-1.34-1.8-3.75-2.26-3.75-2.26Z"/>
        <path class="cls-8" d="M103.87,301.9s-.25,2.45,1.09,4.25c1.34,1.8,3.75,2.26,3.75,2.26,0,0,.25-2.45-1.09-4.25-1.34-1.8-3.75-2.26-3.75-2.26Z"/>
      </g>
    </g>
    <g>
      <path class="cls-11" d="M446.63,356.31c0,26.58-15.72,48.13-35.12,48.13s-35.12-21.55-35.12-48.13,15.72-117.94,35.12-117.94,35.12,91.36,35.12,117.94Z"/>
      <polygon class="cls-7" points="431.2 370.22 420.56 374.15 422.7 367.75 417.61 375.25 412.53 377.12 412.17 356.1 430.65 331.55 420.75 341.46 422.42 334.57 417.68 344.52 412.07 350.13 411.5 317.29 409.49 365.19 391.98 346.64 401.6 359.71 392.53 358.7 403.73 362.61 409.28 370.15 408.31 393.25 401.85 388.87 408.11 398.03 405.15 468.62 414.11 468.62 412.59 380.48 431.2 370.22"/>
      <g>
        <path class="cls-8" d="M430.83,317.39s.32,3.23-1.44,5.6-4.95,2.98-4.95,2.98c0,0-.32-3.23,1.44-5.6,1.76-2.37,4.95-2.98,4.95-2.98Z"/>
        <path class="cls-8" d="M441.41,332.27s.32,3.23-1.44,5.6c-1.76,2.37-4.95,2.98-4.95,2.98,0,0-.32-3.23,1.44-5.6,1.76-2.37,4.95-2.98,4.95-2.98Z"/>
        <path class="cls-8" d="M441.41,361.22s-.78,3.15-3.24,4.78c-2.46,1.64-5.66,1.14-5.66,1.14,0,0,.78-3.15,3.24-4.78,2.46-1.64,5.66-1.14,5.66-1.14Z"/>
        <path class="cls-8" d="M383.27,361.22s.78,3.15,3.24,4.78c2.46,1.64,5.66,1.14,5.66,1.14,0,0-.78-3.15-3.24-4.78-2.46-1.64-5.66-1.14-5.66-1.14Z"/>
        <path class="cls-8" d="M429.18,349.2s.32,3.23-1.44,5.6c-1.76,2.37-4.95,2.98-4.95,2.98,0,0-.32-3.23,1.44-5.6s4.95-2.98,4.95-2.98Z"/>
        <path class="cls-8" d="M426.44,301.21s.32,3.23-1.44,5.6c-1.76,2.37-4.95,2.98-4.95,2.98,0,0-.32-3.23,1.44-5.6s4.95-2.98,4.95-2.98Z"/>
        <path class="cls-8" d="M420.13,313.55s.32,3.23-1.44,5.6c-1.76,2.37-4.95,2.98-4.95,2.98,0,0-.32-3.23,1.44-5.6s4.95-2.98,4.95-2.98Z"/>
        <path class="cls-8" d="M435.1,304.57s.32,3.23-1.44,5.6c-1.76,2.37-4.95,2.98-4.95,2.98,0,0-.32-3.23,1.44-5.6,1.76-2.37,4.95-2.98,4.95-2.98Z"/>
        <path class="cls-8" d="M386.45,304.57s-.32,3.23,1.44,5.6,4.95,2.98,4.95,2.98c0,0,.32-3.23-1.44-5.6-1.76-2.37-4.95-2.98-4.95-2.98Z"/>
        <path class="cls-8" d="M427.81,286.13s.32,3.23-1.44,5.6c-1.76,2.37-4.95,2.98-4.95,2.98,0,0-.32-3.23,1.44-5.6,1.76-2.37,4.95-2.98,4.95-2.98Z"/>
        <path class="cls-8" d="M424.71,270.11s1.13,3.04.01,5.78-4.04,4.13-4.04,4.13c0,0-1.13-3.04-.01-5.78s4.04-4.13,4.04-4.13Z"/>
        <path class="cls-8" d="M402.5,265.92s2.87,1.5,3.88,4.28-.23,5.77-.23,5.77c0,0-2.87-1.5-3.88-4.28-1.01-2.78.23-5.77.23-5.77Z"/>
        <path class="cls-8" d="M412.86,285.08s2.05,2.52,1.88,5.46c-.17,2.95-2.49,5.21-2.49,5.21,0,0-2.05-2.52-1.88-5.46s2.49-5.21,2.49-5.21Z"/>
        <path class="cls-8" d="M412.31,256.56s2.05,2.52,1.88,5.46-2.49,5.21-2.49,5.21c0,0-2.05-2.52-1.88-5.46.17-2.95,2.49-5.21,2.49-5.21Z"/>
        <path class="cls-8" d="M389.06,317.39s-.32,3.23,1.44,5.6c1.76,2.37,4.95,2.98,4.95,2.98,0,0,.32-3.23-1.44-5.6-1.76-2.37-4.95-2.98-4.95-2.98Z"/>
        <path class="cls-8" d="M383.03,334.94s-.32,3.23,1.44,5.6c1.76,2.37,4.95,2.98,4.95,2.98,0,0,.32-3.23-1.44-5.6-1.76-2.37-4.95-2.98-4.95-2.98Z"/>
        <path class="cls-8" d="M399.04,341.32s-.32,3.23,1.44,5.6c1.76,2.37,4.95,2.98,4.95,2.98,0,0,.32-3.23-1.44-5.6-1.76-2.37-4.95-2.98-4.95-2.98Z"/>
        <path class="cls-8" d="M403.42,317s-1.24,3-.22,5.77c1.01,2.77,3.89,4.27,3.89,4.27,0,0,1.24-3,.22-5.77-1.01-2.77-3.89-4.27-3.89-4.27Z"/>
        <path class="cls-8" d="M392.08,381.71s3.24.06,5.46-1.89c2.22-1.95,2.57-5.18,2.57-5.18,0,0-3.24-.06-5.46,1.89-2.22,1.95-2.57,5.18-2.57,5.18Z"/>
        <path class="cls-8" d="M423.2,378.16s.88,3.12,3.39,4.68c2.51,1.56,5.7.96,5.7.96,0,0-.88-3.12-3.39-4.68-2.51-1.56-5.7-.96-5.7-.96Z"/>
        <path class="cls-8" d="M395.7,301.21s-.32,3.23,1.44,5.6c1.76,2.37,4.95,2.98,4.95,2.98,0,0,.32-3.23-1.44-5.6-1.76-2.37-4.95-2.98-4.95-2.98Z"/>
        <path class="cls-8" d="M395.64,286.95s-.32,3.23,1.44,5.6c1.76,2.37,4.95,2.98,4.95,2.98,0,0,.32-3.23-1.44-5.6-1.76-2.37-4.95-2.98-4.95-2.98Z"/>
      </g>
    </g>
    <g>
      <path class="cls-11" d="M92.72,397.97c0,16.72-9.89,30.28-22.09,30.28s-22.09-13.56-22.09-30.28,9.89-74.19,22.09-74.19,22.09,57.47,22.09,74.19Z"/>
      <polygon class="cls-7" points="83.01 406.72 76.32 409.19 77.66 405.17 74.46 409.88 71.27 411.06 71.04 397.84 82.66 382.4 76.44 388.62 77.49 384.29 74.51 390.55 70.98 394.08 70.62 373.42 69.35 403.56 58.34 391.88 64.39 400.11 58.69 399.47 65.73 401.93 69.22 406.68 68.61 421.21 64.55 418.45 68.49 424.21 66.62 468.62 72.26 468.62 71.31 413.17 83.01 406.72"/>
      <g>
        <path class="cls-8" d="M82.78,373.49s.2,2.03-.91,3.52c-1.11,1.49-3.11,1.88-3.11,1.88,0,0-.2-2.03.91-3.52,1.11-1.49,3.11-1.88,3.11-1.88Z"/>
        <path class="cls-8" d="M89.44,382.84s.2,2.03-.91,3.52c-1.11,1.49-3.11,1.88-3.11,1.88,0,0-.2-2.03.91-3.52,1.11-1.49,3.11-1.88,3.11-1.88Z"/>
        <path class="cls-8" d="M89.43,401.06s-.49,1.98-2.04,3.01-3.56.72-3.56.72c0,0,.49-1.98,2.04-3.01s3.56-.72,3.56-.72Z"/>
        <path class="cls-8" d="M52.86,401.06s.49,1.98,2.04,3.01,3.56.72,3.56.72c0,0-.49-1.98-2.04-3.01s-3.56-.72-3.56-.72Z"/>
        <path class="cls-8" d="M81.74,393.5s.2,2.03-.91,3.52c-1.11,1.49-3.11,1.88-3.11,1.88,0,0-.2-2.03.91-3.52,1.11-1.49,3.11-1.88,3.11-1.88Z"/>
        <path class="cls-8" d="M80.02,363.31s.2,2.03-.91,3.52c-1.11,1.49-3.11,1.88-3.11,1.88,0,0-.2-2.03.91-3.52,1.11-1.49,3.11-1.88,3.11-1.88Z"/>
        <path class="cls-8" d="M76.05,371.07s.2,2.03-.91,3.52c-1.11,1.49-3.11,1.88-3.11,1.88,0,0-.2-2.03.91-3.52,1.11-1.49,3.11-1.88,3.11-1.88Z"/>
        <path class="cls-8" d="M85.47,365.42s.2,2.03-.91,3.52c-1.11,1.49-3.11,1.88-3.11,1.88,0,0-.2-2.03.91-3.52,1.11-1.49,3.11-1.88,3.11-1.88Z"/>
        <path class="cls-8" d="M54.86,365.42s-.2,2.03.91,3.52c1.11,1.49,3.11,1.88,3.11,1.88,0,0,.2-2.03-.91-3.52-1.11-1.49-3.11-1.88-3.11-1.88Z"/>
        <path class="cls-8" d="M80.88,353.82s.2,2.03-.91,3.52c-1.11,1.49-3.11,1.88-3.11,1.88,0,0-.2-2.03.91-3.52,1.11-1.49,3.11-1.88,3.11-1.88Z"/>
        <path class="cls-8" d="M78.93,343.74s.71,1.91,0,3.63-2.54,2.6-2.54,2.6c0,0-.71-1.91,0-3.63.7-1.72,2.54-2.6,2.54-2.6Z"/>
        <path class="cls-8" d="M64.96,341.11s1.81.95,2.44,2.69c.63,1.75-.15,3.63-.15,3.63,0,0-1.81-.95-2.44-2.69-.63-1.75.15-3.63.15-3.63Z"/>
        <path class="cls-8" d="M71.47,353.16s1.29,1.58,1.18,3.44c-.11,1.85-1.57,3.28-1.57,3.28,0,0-1.29-1.58-1.18-3.44.11-1.85,1.57-3.28,1.57-3.28Z"/>
        <path class="cls-8" d="M71.13,335.22s1.29,1.58,1.18,3.44-1.57,3.28-1.57,3.28c0,0-1.29-1.58-1.18-3.44.11-1.85,1.57-3.28,1.57-3.28Z"/>
        <path class="cls-8" d="M56.5,373.49s-.2,2.03.91,3.52c1.11,1.49,3.11,1.88,3.11,1.88,0,0,.2-2.03-.91-3.52-1.11-1.49-3.11-1.88-3.11-1.88Z"/>
        <path class="cls-8" d="M52.71,384.53s-.2,2.03.91,3.52c1.11,1.49,3.11,1.88,3.11,1.88,0,0,.2-2.03-.91-3.52-1.11-1.49-3.11-1.88-3.11-1.88Z"/>
        <path class="cls-8" d="M62.78,388.54s-.2,2.03.91,3.52c1.11,1.49,3.11,1.88,3.11,1.88,0,0,.2-2.03-.91-3.52-1.11-1.49-3.11-1.88-3.11-1.88Z"/>
        <path class="cls-8" d="M65.54,373.24s-.78,1.89-.14,3.63c.64,1.75,2.45,2.69,2.45,2.69,0,0,.78-1.89.14-3.63-.64-1.75-2.45-2.69-2.45-2.69Z"/>
        <path class="cls-8" d="M58.4,413.95s2.04.04,3.43-1.19c1.39-1.23,1.61-3.26,1.61-3.26,0,0-2.04-.04-3.43,1.19-1.39,1.23-1.61,3.26-1.61,3.26Z"/>
        <path class="cls-8" d="M77.98,411.71s.55,1.96,2.13,2.94c1.58.98,3.58.6,3.58.6,0,0-.55-1.96-2.13-2.94s-3.58-.6-3.58-.6Z"/>
        <path class="cls-8" d="M60.68,363.31s-.2,2.03.91,3.52c1.11,1.49,3.11,1.88,3.11,1.88,0,0,.2-2.03-.91-3.52-1.11-1.49-3.11-1.88-3.11-1.88Z"/>
        <path class="cls-8" d="M60.64,354.34s-.2,2.03.91,3.52c1.11,1.49,3.11,1.88,3.11,1.88,0,0,.2-2.03-.91-3.52-1.11-1.49-3.11-1.88-3.11-1.88Z"/>
      </g>
    </g>
    <g>
      <path class="cls-11" d="M467.18,415.98c0,12.46-7.37,22.56-16.46,22.56s-16.46-10.1-16.46-22.56,7.37-55.29,16.46-55.29,16.46,42.83,16.46,55.29Z"/>
      <polygon class="cls-7" points="459.95 422.49 454.96 424.34 455.96 421.34 453.58 424.85 451.2 425.73 451.03 415.88 459.69 404.37 455.05 409.01 455.83 405.78 453.61 410.45 450.98 413.08 450.71 397.68 449.77 420.14 441.56 411.44 446.07 417.57 441.82 417.09 447.07 418.93 449.67 422.46 449.22 433.29 446.19 431.24 449.12 435.53 447.73 468.62 451.94 468.62 451.23 427.3 459.95 422.49"/>
      <g>
        <path class="cls-8" d="M459.77,397.73s.15,1.51-.67,2.62-2.32,1.4-2.32,1.4c0,0-.15-1.51.67-2.62s2.32-1.4,2.32-1.4Z"/>
        <path class="cls-8" d="M464.73,404.7s.15,1.51-.67,2.62c-.83,1.11-2.32,1.4-2.32,1.4,0,0-.15-1.51.67-2.62s2.32-1.4,2.32-1.4Z"/>
        <path class="cls-8" d="M464.73,418.28s-.37,1.48-1.52,2.24c-1.15.77-2.65.54-2.65.54,0,0,.37-1.48,1.52-2.24,1.15-.77,2.65-.54,2.65-.54Z"/>
        <path class="cls-8" d="M437.48,418.28s.37,1.48,1.52,2.24,2.65.54,2.65.54c0,0-.37-1.48-1.52-2.24s-2.65-.54-2.65-.54Z"/>
        <path class="cls-8" d="M459,412.64s.15,1.51-.67,2.62c-.83,1.11-2.32,1.4-2.32,1.4,0,0-.15-1.51.67-2.62.83-1.11,2.32-1.4,2.32-1.4Z"/>
        <path class="cls-8" d="M457.72,390.15s.15,1.51-.67,2.62-2.32,1.4-2.32,1.4c0,0-.15-1.51.67-2.62s2.32-1.4,2.32-1.4Z"/>
        <path class="cls-8" d="M454.76,395.93s.15,1.51-.67,2.62c-.83,1.11-2.32,1.4-2.32,1.4,0,0-.15-1.51.67-2.62s2.32-1.4,2.32-1.4Z"/>
        <path class="cls-8" d="M461.78,391.72s.15,1.51-.67,2.62c-.83,1.11-2.32,1.4-2.32,1.4,0,0-.15-1.51.67-2.62.83-1.11,2.32-1.4,2.32-1.4Z"/>
        <path class="cls-8" d="M438.97,391.72s-.15,1.51.67,2.62,2.32,1.4,2.32,1.4c0,0,.15-1.51-.67-2.62-.83-1.11-2.32-1.4-2.32-1.4Z"/>
        <path class="cls-8" d="M458.36,383.08s.15,1.51-.67,2.62c-.83,1.11-2.32,1.4-2.32,1.4,0,0-.15-1.51.67-2.62.83-1.11,2.32-1.4,2.32-1.4Z"/>
        <path class="cls-8" d="M456.91,375.57s.53,1.43,0,2.71-1.89,1.94-1.89,1.94c0,0-.53-1.43,0-2.71s1.89-1.94,1.89-1.94Z"/>
        <path class="cls-8" d="M446.49,373.6s1.35.71,1.82,2.01c.47,1.3-.11,2.71-.11,2.71,0,0-1.35-.71-1.82-2.01-.47-1.3.11-2.71.11-2.71Z"/>
        <path class="cls-8" d="M451.35,382.58s.96,1.18.88,2.56c-.08,1.38-1.17,2.44-1.17,2.44,0,0-.96-1.18-.88-2.56.08-1.38,1.17-2.44,1.17-2.44Z"/>
        <path class="cls-8" d="M451.09,369.21s.96,1.18.88,2.56c-.08,1.38-1.17,2.44-1.17,2.44,0,0-.96-1.18-.88-2.56.08-1.38,1.17-2.44,1.17-2.44Z"/>
        <path class="cls-8" d="M440.2,397.73s-.15,1.51.67,2.62,2.32,1.4,2.32,1.4c0,0,.15-1.51-.67-2.62s-2.32-1.4-2.32-1.4Z"/>
        <path class="cls-8" d="M437.37,405.96s-.15,1.51.67,2.62c.83,1.11,2.32,1.4,2.32,1.4,0,0,.15-1.51-.67-2.62s-2.32-1.4-2.32-1.4Z"/>
        <path class="cls-8" d="M444.87,408.94s-.15,1.51.67,2.62c.83,1.11,2.32,1.4,2.32,1.4,0,0,.15-1.51-.67-2.62s-2.32-1.4-2.32-1.4Z"/>
        <path class="cls-8" d="M446.93,397.54s-.58,1.41-.1,2.71c.47,1.3,1.82,2,1.82,2,0,0,.58-1.41.1-2.71-.47-1.3-1.82-2-1.82-2Z"/>
        <path class="cls-8" d="M441.61,427.88s1.52.03,2.56-.89c1.04-.92,1.2-2.43,1.2-2.43,0,0-1.52-.03-2.56.89-1.04.91-1.2,2.43-1.2,2.43Z"/>
        <path class="cls-8" d="M456.2,426.22s.41,1.46,1.59,2.19c1.18.73,2.67.45,2.67.45,0,0-.41-1.46-1.59-2.19-1.18-.73-2.67-.45-2.67-.45Z"/>
        <path class="cls-8" d="M443.31,390.15s-.15,1.51.67,2.62c.83,1.11,2.32,1.4,2.32,1.4,0,0,.15-1.51-.67-2.62-.83-1.11-2.32-1.4-2.32-1.4Z"/>
        <path class="cls-8" d="M443.28,383.46s-.15,1.51.67,2.62c.83,1.11,2.32,1.4,2.32,1.4,0,0,.15-1.51-.67-2.62s-2.32-1.4-2.32-1.4Z"/>
      </g>
    </g>
  </g>
  <line class="cls-5" x1="17.73" y1="469.16" x2="472.89" y2="469.16"/>
</svg>