<?xml version="1.0" encoding="UTF-8"?>
<svg id="Capa_1" data-name="Capa 1" xmlns="http://www.w3.org/2000/svg" viewBox="0 0 1095.74 434.6">
  <path d="M90.26,434.55l-88.97.03v-214.73s180.39-.65,180.39-.65c25.53-.09,43.7-23.51,43.67-47.08.91-24.83-18.74-46.45-43.47-47.9-10.88-.64-21.41-.32-32.43-.4-2.56,9.02-.3,19.44-1.59,27.11-1.95,11.61-16.94,18.98-27.6,12.74L6.8,97.23c-9.64-5.65-8.68-24.58.69-29.97L119.1,2.97c6.44-3.71,13.4-4,19.89-.52,5.04,2.71,10.11,8.37,10.15,15.5l.12,24.97c11.69.11,23.01.1,34.48.54l24.2.92c36.82,1.4,84.46,36.17,98.08,72.58,27.9,67.11,2.33,147.94-68.21,174.46l93.54,143.13-104.11.06-87.84-133.73-49.15-.22.02,133.91ZM143.27,10.76c-6.83-9.22-16.2-8.93-24.8-3.75l-21.3,12.83c17.77-3.68,27.83-8.64,46.1-9.08ZM30.01,86.09l28.68-24.81c9.89-8.55,22.52-12.17,34.87-16.09l20.51-6.51c8.42-2.67,16.29-4.04,25.29-1.61l6.86-1.36v-11.89s-20.2-1.04-20.2-1.04c-21.6,4.8-41.73,12.82-61.91,21.76-7.96,3.53-13.83,8.33-20.36,13.94l-29.42,25.28-8.19,7.61c3.51,3.53,6.2,5.67,10.32,7.77,4.66-4.57,8.46-8.66,13.56-13.07ZM268.23,97.86c8.86,7.03,17.7,13.51,26.91,20.01l9.9,6.98c-9.48-28.98-17.99-24.49-35.15-38.66l-26.29-21.71-13.82-3.18c-3.57-.82-5.95-4.48-7.35-7.77-2.29,2.11-5.45,4.63-7.67,4.27-3.36-3.13-7.13-6.26-11.49-6.95-9.52-1.5-18.59-3.73-28.22-4.46-30.55-2.3-45.19.53-73.81,8.53-24.95,6.97-46.3,20.31-64.9,37.89l-11.76,11.11,10.51,6.3,26.6-23c7.32-6.33,16.99-8.79,26.11-11.79l27.87-9.17c12.94-4.26,26.46-10.83,40.56-10.77,16.89.08,33.61,4.46,49.73,8.74,10.7,2.84,20.27,7.53,30.53,11.48,8.14,3.13,14.91,8.81,21.65,14.15l10.1,8.01ZM3.7,81.69c10.54-7.76,19.94-14.12,27.26-23.82-9.99,4.9-29.41,13.6-27.26,23.82ZM313.59,159.55l-2.38-14.48c-10.59-8.82-20.65-15.96-31.7-23.56-16.72-11.5-9.42-15.92-44.32-31.77-6.86-3.12-13.85-7.12-21.38-8.26-6.76-1.03-12.21-3.23-15.14-10.28-17.88,1.05-40.47-10.06-55.75-6.61-1.84.42-4.17,3.14-3.89,4.64.24,1.32,2.34,3.91,3.76,4.25l45.03,10.79c9.42,2.26,18.64,5.04,26.91,10.06l35.51,21.55c2.19,1.33,7.96,1.01,9.37,3.39,2.17,3.68,3.1,7.8,3.84,11.22,9.29-2.56,16.77,3.13,23.1,9,11.76,10.9,20.98,15.81,27.27,30.52.32-3.8.33-7.02-.23-10.46ZM285.35,185.51c-5.38-9.17-11.56-17.34-18.24-25.78-2.32-2.93-9.96-5.47-7.75-13.06,10.33,4.28,17.71,11.67,24.63,20.35,3.56,4.46,8.39,8.67,11.28,13.45,4.82,7.98,4.91,20.34,13.27,29.4l3.61-15.03-18-36-33.07-21.9c-9.32-6.17-18.16-11.97-26.5-19.52-17.33-15.68-24.44-10.64-34.77-14.32l-32.8-11.7c-7.58-2.7-16.11-1.82-20.98-9.49-25.17-2.99-19.6-2.77-42.8,3.04-7.69,1.93-14.55,5.66-21.47,9.43-12.49,6.8-24.66,13.43-36.68,21.73l11.53,6.59c20.17-15.31,37.07-24.56,63.04-26.41,8.25-.59,26.62-1.05,34.19.99,16.13,4.35,31.06,10.25,45.66,18.32,12.77,7.06,24.84,14.04,37.2,21.87s19.55,29.97,31.21,40.5c5.83,5.27,7.29,11.45,2.4,19.31l12.45,3.81c4.05,12.7,8.36,24.25,13.8,36.78l6.73-13.64-5.49-12.14c-4.06-8.97-7.42-18.02-12.44-26.58ZM105.24,123.02c8.99-3.65,18.38-4.28,27.97-4.31,7.99-.03,15.25,1.57,23.17,1.78l23.72.63,7.24.52c-13.99-10.47-44.54-15.96-62.35-18.18-9.61-1.2-11.12,8.08-27.01,7.51-3.6-.13-10.33.94-13.14,3.21l-17.91,14.5,17.39,10.36,12.81-10.43c2.2-1.79,5.48-4.54,8.11-5.61ZM145.3,146.8l-.28-18c-19.11-.74-34.95,5.88-49.84,16.44l16.55,9.5c11-5.38,21.37-8.48,33.57-7.94ZM289.78,247.82c-2.99-5.84-4.76-9.2-6.81-14.01-1.26-2.95-1.12-8.04-3.2-10.49-10.43-12.21-6.79-14.72-13.83-25.29l-28.77-43.21c-3.86-5.8-10.04-9.5-16.22-11.77,4.45,8.79,7.18,16.4,7.65,25.16l16.6,20.54c5.9,7.31,9.36,15.27,11.69,24.46,1.31,5.15,4.83,9.75,7.24,14.56,3.99,7.98,5.47,16.74,7.72,25.33l2.96,11.31c5.98-5.56,10.77-10.45,14.95-16.59ZM259.96,276.68c.32-4.21.2-9.06-1.16-12.45l-10.02-6.07c10.35-9.35-1.12-36.42-6.46-44.52l-16.13-24.48-7.71,14.03,13.22,26.99c6.64,13.55,9.12,27.87,11.08,42.8l1.61,12.27,15.57-8.58ZM191.3,373.5c6.41-12.4,10.6-23.6,16.39-35.47l15.67-32.11c4.44-9.09,6.16-19.96,5.51-29.84-.58-8.77-2.71-16.63-5.15-24.74l-6.77-22.44c-1.71-5.66-4.49-11.62-6.97-16.87l-11.78,7.01c5.52,11.65,7.28,28.85,10.97,38.76,5.68,15.25,5.57,30.6-1.46,45.55-5.47,11.63-9.66,23.4-12.91,35.86-2.26,8.67-5.85,15.8-11.07,23.17l7.57,11.12ZM87.25,330.71l-.07-18.28-10.83,1.63c-9.1,1.37-16.43.29-23.08-6.62s-13.08-13.98-16.23-23.61c-6.4-19.55-7.72-40.35-6.21-61l-13.3-.07-.92,11.27c-1.07,13.09,1.68,39.03,6.66,51.65,2.11,5.35,5.57,9.59,8.92,14.15,17.9,24.43,19.61,31.13,55.07,30.89ZM114.72,254.21c2.79-3.4,7.77-7.4,11.83-2.53,2.14,2.57-.08,8.1-2.85,10.72-11.32,10.73-25.03,19.92-40.11,24.22-5.9,1.68-13.62-1.44-15.46-6.45-8.27-22.51,33.65-47.99,49.45-57.3l-24.01-.11-13.27,13.94c-3.43,3.6-6.22,6.69-10.4,10.76-1.13-5.14-1.21-10.54,1.39-14.58l6.45-10.06-12.58-.07-10.06,28.49c-4.1-9.33-3.29-18.54-1.7-28.55l-11.29.26c-2.65,1.18-2.33,7.03-2.11,9.58l.95,11.35c.54,6.46.75,13.46,3.76,19.44l12.03,23.91c6.22,12.36,42.9,8.35,50.68,3.55,15.85-9.78,28.21-24.02,35.96-40.83,3.84-8.33,7-21.46-2.84-25.16-3.04-1.14-6.29.04-9.39,1.77l-23.24,12.93c-7.1,3.95-29.12,21.16-27.96,29.43,9.13,13.51,28.29-6.85,34.77-14.74ZM167.78,337.62l7.38-8.02c4.86-5.28,9.22-10.14,12.2-16.91,11.36-25.75,10.15-65.03-4.4-89.84l-12.96-.03c9.18,12.4,12.31,26.94,11.51,41.99-.32,6.05-.83,12.37-3.37,17.82l-12.42,26.65-6.96,14.54,9.03,13.79ZM141.34,297.8l9.27,14.03,9.65-16.04c8.08-13.42,8.14-29.64,5.97-44.98.28-4.01-.64-6.93-4.11-9.5-2.24,2.16-4.2,4.42-5.18,7.08-8.15,22.09-12.21,31.95-28.79,49.19l13.19.21ZM24.45,369.65c-3.95-8.56-7.96-16.61-12.36-24.68-3.85-7.07-3.9-15.27-1.09-22.98,15.8,13.86,10.58,22.08,25.2,31.7,15.53,10.22,33.73,13.41,51.17,7.37l-.18-13.06-9.56-1.67c-11.08-1.94-21.66-4.69-32.03-8.97-6.83-2.82-12.47-7.39-16.81-13.2-6.19-8.26-11.64-16.38-16.8-25.33-3.65-11.62-5.14-22.8-6.55-35.2l-.09,91.82c8.86,23.39,4.5,18.03,21.89,34.09l10.97,10.14,10.73,10.12c13.16-3.98,25.83-10.35,38.29-17.3l-.06-16.86c-6.17,3.32-11.72,2.43-16.56-.93-2.1,2.18-5.58,5.62-8.14,5.8-5.42.37-9.03-3.86-11.6-7.42-7.5-10.35-18.51,1.23-26.42-3.45ZM229.38,404.25l21.08-49.3c3.93-9.2,4.41-19.29,5.91-29.13l-11.86-17.44c-1.93,36.98-14.9,64.37-33.26,95.88l9.29,13.67c3.49-4.24,6.5-8.23,8.83-13.68ZM206.33,396.3c9.98-17.69,17.82-34.9,25.15-53.33,3.56-8.94,7.44-22.53.97-30.64-3.03,1.54-5.06,3.69-6.08,6.7-7.59,22.48-16.6,43.68-28.67,64.25l8.62,13.03ZM231.2,431.67h8.3s29.95-55.76,29.95-55.76l7.21-19.06-12.23-18.24c-2.37,8.87-2.59,18.13-6.22,26.19l-11.43,25.41c-3.48,7.73-6.85,15.27-11.86,22.14-2.03,2.78-13.78,19.31-3.72,19.3ZM278.71,414.1l12.35-26.53c.76-1.64,1.55-3.89,2.1-5.65l-11.52-16.69c-2.63,15.21-8.78,28.13-16.38,41.38l-14.27,24.91h16.68s11.04-17.43,11.04-17.43ZM87.12,410.95l-19.45,7.18c-4.81,1.51-11.57,2.6-16.47.67l-21.73-8.54c-9.35-3.67-13.23-15.29-15.68-24-3.8-3.22-6.67-6.63-9.44-10.74l-.12,29.11c8.3,14.64,9.92,18.87,25.06,27.02l45.99-.19c3.62-.01,7.98-2.3,11.99-3.18l-.14-17.34ZM296.15,431.51l13.26-24.61-10.92-16.21-4.66,19.97c-6.4,5.61-11.52,12.44-15.03,20.88l17.35-.02ZM320.08,431.54l1.72-5.59-6.87-10.15-7.09,15.75h12.24Z"/>
  <path d="M435.41,268.96l-24.75-32.19-24.53.02-.07,31.37c0,1.06-3.41,2.19-4.24,1.64s-2.67-2.44-2.67-3.51l.05-75.31c14.85-.13,28.39-.68,42.32.33,9.6.7,17.31,8.98,19.06,16.55,2.33,10.11-1.73,19.84-10.88,24.53-3.26,1.67-7.47,2.81-10.46,3.83l21.61,28.13c.89,1.16.23,4.42-.63,5.06s-4.16.4-4.81-.45ZM433.65,217.63c1.14-5.3.59-10.61-3.09-14.45-3.41-3.55-9.29-6.31-14.38-6.33l-30.08-.1v34.05s29.07-.14,29.07-.14c5.49-.03,16.68-4.61,18.49-13.04Z"/>
  <path d="M994.93,255.98c-14.42,17.89-38.89,18.67-54.6,7.19-19.84-14.49-20.47-45.26-5.49-61.65,15.04-16.46,42.25-17.34,57.93-.79,14.21,15,14.97,39.35,2.16,55.24ZM988.97,252.47c11.06-13.92,10.29-33.04-.85-45.94-5.75-6.65-13.09-10.61-22.02-11.2-19.93-1.32-35.42,15.65-34.52,35.38.8,17.6,11.82,31.11,28.73,33.38,10.55,1.42,21.58-2.71,28.67-11.62Z"/>
  <path d="M489.09,232.75l-.05,29.97,47.84.03c1.23,0,3.26,2.35,3.33,3.48s-2.4,3.4-3.88,3.41l-48.36.14c-3.13.2-5.98-1.76-5.98-5.07l.18-73.85,55.97-.08c1.45.44,1.05,5.08-.41,5.98l-48.69.05.06,29.95h42.63c1.03,0,2.92,1.85,2.58,2.58l-1.57,3.42-43.66-.02Z"/>
  <path d="M757.99,260.61c13.4,7.42,28.77,3.68,39.65-7.13.77-.76,3.34-.84,4.34-.45,8.61,3.41-19.44,26.02-44.92,14.72-13.38-5.94-21.61-17.22-23.66-31.65-2.22-15.68,4.07-32.25,17.73-41.02,23.92-15.36,53.28,1.45,51.76,9.19-.28,1.42-4.54,2.19-5.64,1.2-10.69-9.64-24.61-13.5-38.01-7.14-11.66,5.54-18.79,17.65-19.19,30.03-.42,13.13,6.12,25.71,17.94,32.26Z"/>
  <path d="M594.08,255.93c13.7,12.57,32.85,10.5,45.38-1.73,1.21-1.18,4.46-1.86,5.62-1.06,1.23.84,1.04,4.15-.27,5.44-16.1,15.91-41.98,16.63-58.05.37-6.62-6.7-10.04-15.91-10.83-25.06-1.67-19.36,8.49-37.21,27.02-43.09,15.14-4.81,32.75-.87,42.93,11.05.7,1.21-2.34,4.46-3.67,4.23-1.66-.29-3.49-1.21-5.01-2.55-13.22-11.67-33.43-11.25-45.3,2.13-12.81,14.43-12.24,37.04,2.18,50.27Z"/>
  <path d="M889.86,269.72l-44.07.02c-1.16,0-3.77-1.4-4.92-2.53v-73.98c.01-1.44,1.83-3.01,2.71-3.48s4.22.45,4.22,2.08l.08,70.91,44,.03c1.37,0,2.44,3.22,2.15,4.49-.26,1.18-2.56,2.46-4.17,2.47Z"/>
  <path d="M1071.6,255.19c-.02,2-6.61,2.08-6.64.35l-.31-22.76-22.89-.07c-.66-1.38-1.03-4.13-.99-5.92l23.95-.09.07-21.75c0-1.31,2.33-3.34,3.45-3.34s3.44,2.03,3.45,3.32l.08,21.76,23.79.1c.46,1.35.09,5.16-1.2,5.85l-22.51.11-.25,22.41Z"/>
  <rect x="684.94" y="189.8" width="6" height="79.93"/>
  <path d="M568.66,337.67c-.63,0-3.12-1.19-2.72-1.49s1.88-1.56,2.53-1.55l15.3.16-.04,15.73c-8.65,7.51-22.3,8.71-30.83.26-8.95-8.87-7.38-23.55,1.53-31.44,7.88-6.97,20.41-5.54,27.12.26.69.6-.35,3.38-1.1,3.2-3.11-.77-13.69-9.26-23.8-.02-5.44,4.97-7,13.04-4.03,20.28,2.07,5.06,6.84,8.51,11.3,9.36,6.05,1.16,11.98-.88,16.18-4.35l-.19-10.43h-11.27Z"/>
  <path d="M808.92,331.27c-2.39-2.76-5.88-2.47-8.41-1.52-2.18.82-5.38,3.97-5.44,7.06l-.37,18.54c-.74.84-3.76-.48-3.78-1.64l-.32-18.84c-.07-4.29-5.88-6.19-8.72-5.49-4.13,1.01-7.26,4.29-7.16,9.32l.27,13.68c.02.8-.76,2.46-1.06,2.99-.39.69-3.04.08-3.04-.97v-27.22c1.14-.95,1.68-1.52,1.98-1.16l2.11,2.59c5.42-4.58,13.93-4.61,18.33,2.26,2.95-3.99,6.36-5.84,11.73-5.29,3.63.37,9.57,2.48,9.63,7.25l.31,22.72-3.08.04-.07-16.85c0-1.96-1.57-5.91-2.91-7.46Z"/>
  <path d="M735.29,351.87c8.69,4.19,17.81-8.73,15.89-1.89-1.61,5.74-11.52,8.2-17.39,5.58-5.01-2.24-8.93-6.51-9.05-12.82s.77-11.81,5.91-14.99c4.49-2.78,11.07-3.25,15.66-.06s6.65,8.99,5.4,14.94l-23.07.08c.59,4.1,3.64,7.7,6.65,9.16ZM748.29,338.57c-1.17-5-4.01-8.51-8.03-9.24-5.56-1.01-11.15,3.56-11.52,9.33l19.55-.08Z"/>
  <path d="M835.02,341.51c5.42-5.83,12.69-5.13,20.52-3.49.12-1.52-.72-4.8-1.69-5.99-3.44-4.2-10.84-1.98-14.6-1.17l-2.46.53c-.54.12-.83-2.52-.41-2.82,4.99-3.47,16.69-5.2,20.92,1.55,4.31,6.88,3.61,35.92-2.03,22.61-5.09,5.45-15.58,5.39-20.56-.89-1.57-1.98-1.47-8.41.32-10.33ZM855.45,341.77c-4.16-1.2-9.53-1.53-13.17-.79s-5.08,4-4.5,7.2c.36,2,3.33,4.25,6.03,4.5,6.6.6,13.82-3.95,11.63-10.9Z"/>
  <path d="M905.64,339.95c2.88-2.1,7.87-3.46,10.84-3.12l8.36.96c.1-5.37-3.97-8.61-9.07-8.23-2.52.19-5.16.75-7.57,1.3l-2.46.55c-.55.12-.87-2.53-.37-2.87,4.66-3.2,14.95-4.88,20.14.46,2.43,2.51,3.43,6.93,3.38,10.66l-.2,14.4c0,.49-2.13,2.15-2.41,1.71l-1.95-3.04c-5.18,4.78-14.21,5.77-19.68.05-2.97-3.1-3.03-9.92.99-12.84ZM924.32,342.08c-4.84-2.1-10.85-2.1-15.16.01-2.15,1.05-3.06,5.67-1.89,7.52,2.58,4.1,10.51,4.19,15.19.16,1.64-1.41,3.26-6.02,1.87-7.69Z"/>
  <path d="M649.18,341.4c5.19-5.47,12.7-5.17,20.44-3.36.12-1.57-.7-4.82-1.69-6.01-3.5-4.21-10.82-1.99-14.61-1.18l-2.46.53c-.55.12-.86-2.45-.39-2.8,3.97-2.98,12.54-4.34,17.81-1.35,2.82,1.59,4.73,4,4.71,7.42l-.1,20.54c-.31.19-2.28.84-2.43.45l-1.15-3.12c-5.48,5.9-16.33,5.37-20.82-1.14-1.24-2.02-1-8.23.67-10ZM669.8,341.64c-5.02-.95-9.35-1.38-13.49-.65-3.46.61-5.01,4.07-4.44,7.18.36,1.95,3.4,4.34,5.98,4.5,6.94.44,13.45-3.68,11.95-11.04Z"/>
  <path d="M628.87,325.61l.11,29.97c-1.96.45-3.56-.79-4.51-2.83-3.05,3.66-8.27,4.83-13.23,3.28-4.57-1.43-8.06-5.67-8.15-11.49l-.21-15.07c-.02-1.48,1.97-3.73,3.88-3.51l.24,17.79c.06,4.36,3.6,8.56,7.51,9.02s10.07-2.4,10.18-7.3l.37-16.74c.02-1.08,1.94-2.61,3.8-3.12Z"/>
  <path d="M699.06,349.41c.02,3.56,6.65,3.89,8.33,2.35l1.63,1.5c.41.37-.86,1.6-1.65,2.09-3.05,1.88-10.89,1.41-11.76-3.43-1.29-7.18-.41-15.16-.89-22.21l-3.26-.08c-.63-.02-.95-2.04-.47-2.46s1.49-.4,3.7-.66l.33-7.62c.02-.55,1.11-1.94,1.48-2.34,2.41-2.61,2.81,8.29,2.45,10l10.71.39c-2.75,4.64-5.9,2.39-10.74,2.46l.12,20.02Z"/>
  <path d="M883.84,353.03c0,.7-1.19,2.4-1.59,2.8-.52.52-2.42-1.63-2.42-2.47v-37.04c.01-.87,1.21-2.42,1.59-2.8.51-.52,2.41,1.63,2.41,2.6v36.92Z"/>
</svg>