<?xml version="1.0" encoding="UTF-8"?>
<svg id="OBJECTS" xmlns="http://www.w3.org/2000/svg" viewBox="0 0 660.22 251.33">
  <defs>
    <style>
      .cls-1, .cls-2, .cls-3 {
        stroke: #1c316b;
      }

      .cls-1, .cls-2, .cls-3, .cls-4 {
        stroke-linecap: round;
        stroke-linejoin: round;
      }

      .cls-1, .cls-3, .cls-4 {
        fill: none;
      }

      .cls-5 {
        fill: #084734;
      }

      .cls-2, .cls-6 {
        fill: #fff;
      }

      .cls-7 {
        fill: #17c893;
      }

      .cls-3 {
        stroke-width: 2px;
      }

      .cls-4 {
        stroke: #fff;
      }
    </style>
  </defs>
  <g>
    <rect class="cls-2" x="258.25" y="158.85" width="74.31" height="91.27" rx="4.6" ry="4.6" transform="translate(590.81 408.97) rotate(180)"/>
    <line class="cls-2" x1="261.61" y1="190.02" x2="261.61" y2="240.2"/>
    <path class="cls-1" d="M265.06,163.57c-2.03.86-3.45,2.86-3.45,5.2v16.04"/>
    <path class="cls-1" d="M261.61,240.2c0,3.12,2.53,5.65,5.65,5.65h22.24"/>
    <rect class="cls-5" x="258.25" y="137.67" width="74.31" height="14.96" transform="translate(590.81 290.31) rotate(180)"/>
    <rect class="cls-2" x="258.25" y="152.74" width="74.31" height="7.48" rx="2.15" ry="2.15" transform="translate(590.81 312.96) rotate(180)"/>
  </g>
  <g>
    <rect class="cls-5" x="436.77" y="220.56" width="14.33" height="29.44" rx="2.56" ry="2.56"/>
    <rect class="cls-5" x="586.04" y="220.56" width="14.33" height="29.44" rx="2.56" ry="2.56"/>
    <polygon class="cls-5" points="586.71 249.99 451.1 249.99 443.56 31.03 594.24 31.03 586.71 249.99"/>
    <path class="cls-7" d="M450.93,11.95h135.94c2.31,0,4.18,1.87,4.18,4.18v9.18h-144.31v-9.18c0-2.31,1.87-4.18,4.18-4.18Z"/>
    <rect class="cls-7" x="436.88" y="22.87" width="164.04" height="13.36"/>
    <polygon class="cls-5" points="437.12 36.49 444.03 44.33 444.03 36.49 437.12 36.49"/>
    <polygon class="cls-5" points="600.77 36.49 593.86 44.33 593.86 36.49 600.77 36.49"/>
    <polygon class="cls-5" points="488.34 36.49 495.25 44.33 495.25 36.49 488.34 36.49"/>
    <polygon class="cls-5" points="545.16 36.49 538.25 44.33 538.25 36.49 545.16 36.49"/>
  </g>
  <g id="LdiMUf">
    <g>
      <path class="cls-6" d="M514.73,168.8c-.45,0-.84,0-1.23,0-7.05-.03-14.09-.06-21.14-.08-4.31-.01-7.6-1.81-9.77-5.54-2.28-3.91-4.5-7.85-6.74-11.78-.05-.09-.06-.2-.05-.17,12.62.05,25.26.11,37.91.14.87,0,1.21.19,1.2,1.14-.06,5.11-.06,10.22-.08,15.33,0,.28-.06.56-.1.96Z"/>
      <path class="cls-6" d="M533.37,145.25c0,2.22-.02,4.13-.03,6.15.53.03.95.07,1.38.07,4.71.02,9.42.06,14.13.04.83,0,1.31.23,1.73.97,1.58,2.87,3.25,5.7,4.86,8.56,2.25,4.02-.07,7.92-4.67,7.9-5.4-.03-10.8-.04-16.21-.06-.36,0-.72,0-1.21,0,0,2.01-.02,3.96-.02,5.9-.09.04-.17.09-.26.13-4.97-4.89-9.95-9.78-15.03-14.79,5.07-4.91,10.1-9.79,15.35-14.87Z"/>
      <path class="cls-6" d="M497.69,117.68c1.74,6.92,3.43,13.69,5.2,20.72-1.91-1.1-3.57-2.06-5.35-3.08-.22.34-.45.65-.64.98-2.4,4.13-4.82,8.24-7.19,12.39-.41.72-.86,1.01-1.71.99-3.21-.07-6.42-.16-9.63-.03-4.59.18-7.07-4.34-4.67-8.17,2.87-4.56,5.47-9.3,8.18-13.96.18-.31.34-.62.55-1-1.75-1.03-3.44-2.03-5.34-3.14,6.97-1.92,13.72-3.79,20.6-5.69Z"/>
      <path class="cls-6" d="M491.78,110.56c1.42-2.45,2.78-4.78,4.13-7.11,2.42-4.16,4.84-8.32,7.28-12.47,2.19-3.72,5.48-5.53,9.78-5.53,4.2,0,8.39.03,12.59.05.32,0,.64,0,.97,0-6.59,11.28-13.13,22.49-19.74,33.81-5-2.91-9.93-5.79-15.01-8.75Z"/>
      <path class="cls-6" d="M544.59,103.67c1.79-1.02,3.46-1.97,5.38-3.06-1.82,7.03-3.58,13.8-5.36,20.68-6.83-1.95-13.53-3.86-20.55-5.86,1.93-1.12,3.61-2.09,5.38-3.11-.99-1.74-1.93-3.41-2.88-5.08-1.64-2.88-3.27-5.77-4.95-8.63-.33-.56-.3-.97.01-1.5,1.7-2.89,3.35-5.81,5.08-8.69,2.38-3.96,6.88-3.9,9.18.09,2.67,4.65,5.32,9.31,7.98,13.96.21.37.45.74.73,1.19Z"/>
      <path class="cls-6" d="M538.64,128.36c5.08-2.9,10.01-5.72,15.03-8.6.24.36.44.64.62.95,3.53,6.17,7.06,12.34,10.59,18.51,2.16,3.77,2.22,7.54.04,11.32-2.17,3.76-4.36,7.5-6.55,11.25-.12.21-.29.4-.37.51-6.43-11.28-12.87-22.55-19.36-33.93Z"/>
    </g>
  </g>
  <path class="cls-5" d="M78.81,186.96c-3.15-18.9,0-15.75,0-25.21s-1.26-17.64-1.26-17.64H22.87s-1.26,8.19-1.26,17.64,3.15,6.3,0,25.21c-3.15,18.9-2.52,19.53-1.89,27.1.63,7.56,3.15,14.49,3.15,14.49,0,0-1.26,3.15-1.26,8.82s0,8.19,3.15,10.71c0,0,3.34,1.65,7.02,1.65h36.85c3.68,0,7.02-1.65,7.02-1.65,3.15-2.52,3.15-5.04,3.15-10.71s-1.26-8.82-1.26-8.82c0,0,2.52-6.93,3.15-14.49.63-7.56,1.26-8.19-1.89-27.1Z"/>
  <g>
    <path class="cls-7" d="M49.9,59.16s-9.47-8.58-9.47-19.23C40.43,18.8,51.08,0,51.08,0c0,0,9.47,31.35,8.87,40.52-.59,9.17-10.06,18.64-10.06,18.64Z"/>
    <path class="cls-7" d="M61.73,70.99s-4.87-11.81-.29-21.43c9.07-19.09,26.76-31.49,26.76-31.49,0,0-4.91,32.38-9.38,40.41-4.47,8.03-17.08,12.51-17.08,12.51Z"/>
    <path class="cls-7" d="M38.32,91.7s1.91-12.63-4.82-20.88C20.14,54.44,0,46.61,0,46.61c0,0,12.49,30.28,18.75,37.01,6.26,6.73,19.57,8.08,19.57,8.08Z"/>
    <path class="cls-7" d="M56.72,114.57s7.43,3.26,13.6.5c12.24-5.48,20.37-16.53,20.37-16.53,0,0-20.62,2.65-25.78,5.37-5.16,2.72-8.19,10.66-8.19,10.66Z"/>
    <line class="cls-1" x1="50.21" y1="59.16" x2="50.21" y2="35.81"/>
    <line class="cls-3" x1="50.21" y1="144.11" x2="50.21" y2="59.16"/>
    <line class="cls-1" x1="61.84" y1="71.05" x2="74.45" y2="46.74"/>
    <line class="cls-3" x1="50.2" y1="93.47" x2="61.84" y2="71.05"/>
    <line class="cls-1" x1="38.32" y1="91.7" x2="18.25" y2="68.63"/>
    <line class="cls-3" x1="49.9" y1="105.01" x2="38.32" y2="91.7"/>
    <line class="cls-1" x1="56.65" y1="114.45" x2="65.58" y2="109.45"/>
    <line class="cls-3" x1="50.79" y1="117.73" x2="56.65" y2="114.45"/>
  </g>
  <g>
    <path class="cls-7" d="M627.24,181.62s-7.66-6.94-7.66-15.55c0-17.09,8.61-32.3,8.61-32.3,0,0,7.66,25.36,7.18,32.77-.48,7.42-8.13,15.07-8.13,15.07Z"/>
    <path class="cls-7" d="M636.81,191.19s-3.94-9.55-.24-17.33c7.34-15.44,21.64-25.47,21.64-25.47,0,0-3.97,26.19-7.59,32.68-3.62,6.49-13.82,10.12-13.82,10.12Z"/>
    <path class="cls-7" d="M617.88,207.94s1.54-10.22-3.9-16.89c-10.81-13.24-27.09-19.57-27.09-19.57,0,0,10.1,24.49,15.16,29.93,5.06,5.44,15.83,6.53,15.83,6.53Z"/>
    <path class="cls-7" d="M632.75,226.44s6.01,2.64,10.99.4c9.9-4.43,16.48-13.37,16.48-13.37,0,0-16.68,2.14-20.85,4.34-4.17,2.2-6.62,8.62-6.62,8.62Z"/>
    <line class="cls-1" x1="627.49" y1="181.62" x2="627.49" y2="162.74"/>
    <line class="cls-3" x1="627.49" y1="250.33" x2="627.49" y2="181.62"/>
    <line class="cls-1" x1="636.89" y1="191.24" x2="647.09" y2="171.58"/>
    <line class="cls-3" x1="627.48" y1="209.37" x2="636.89" y2="191.24"/>
    <line class="cls-1" x1="617.87" y1="207.94" x2="601.64" y2="189.28"/>
    <line class="cls-3" x1="627.24" y1="218.7" x2="617.87" y2="207.94"/>
    <line class="cls-1" x1="632.69" y1="226.34" x2="639.92" y2="222.29"/>
    <line class="cls-3" x1="627.96" y1="228.99" x2="632.69" y2="226.34"/>
  </g>
  <g>
    <path class="cls-7" d="M104.62,160.52c3.99,11.64,7.24,19.35,8.69,22.63h7.42c-1.55-4.53-5.43-16.78-6.15-27.61-.91-13.58,1.36-27.61-2.26-54.32-3.62-26.71-11.77-47.98-11.77-47.98,0,0,.45,2.72.91,12.22.45,9.51,1.36,23.54-.45,43-1.81,19.46-1.81,36.21,3.62,52.05Z"/>
    <path class="cls-7" d="M123.18,145.58c-5.37,23.25-1.69,34.06.09,37.57h4.93c-.63-2.23-1.73-6.79-1.4-10.41.45-4.98.91-9.05,9.51-22.63,8.6-13.58,9.05-40.74-1.36-72.87s-16.75-36.66-16.75-36.66c0,0,.91,9.51,4.53,26.71,3.62,17.2,7.24,48.88.45,78.31Z"/>
    <path class="cls-7" d="M163.39,183.15c.46-1.93,1.46-5.22,3.69-10.41,4.07-9.51,17.76-7,16.75-46.62-1.36-52.96-.45-72.42-.45-72.42,0,0-6.34,17.2-14.03,47.53-7.69,30.33-5.88,28.06-9.51,46.17-3.05,15.23-3.53,31.11-3.61,35.76h7.16Z"/>
    <path class="cls-7" d="M151.9,183.15c-2.57-2.73-5.64-9.25-1.56-23.99,8.15-29.42,14.48-53.41,10.86-79.66-3.62-26.25-3.62-33.04-3.62-33.04,0,0-12.22,42.1-12.67,72.87-.45,30.78-.45,40.28-.45,47.07,0,5.16-1.04,13.19-1.55,16.75h8.99Z"/>
  </g>
  <g>
    <path class="cls-2" d="M119.33,245.35h40.28c15.41-7.33,26.03-22.82,26.03-40.74,0-7.68-1.96-16.06-5.4-23.99h-81.55c-3.44,7.93-5.4,16.31-5.4,23.99,0,17.92,10.62,33.4,26.03,40.74Z"/>
    <path class="cls-2" d="M158.94,250.33h-38.93c-1.5,0-2.72-1.22-2.72-2.72h0c0-1.5,1.22-2.72,2.72-2.72h38.93c1.5,0,2.72,1.22,2.72,2.72h0c0,1.5-1.22,2.72-2.72,2.72Z"/>
  </g>
  <g>
    <path class="cls-2" d="M298.32,250.1l-66.35-.19c-2.94,0-5.32-2.4-5.32-5.35l-3.44-39.98,84.11.24-3.66,39.96c0,2.94-2.4,5.32-5.35,5.32Z"/>
    <path class="cls-2" d="M292.37,250.09l-54.44-.15c-2.42,0-4.37-2.4-4.36-5.34l-2.8-39.97,69.01.2-3.03,39.96c0,2.94-1.97,5.32-4.39,5.32Z"/>
    <path class="cls-5" d="M308.7,203.39l-21.8-.06-43.67-.12-21.8-.06v3.33s13.04.04,13.04.04l2.36,5.05c3.05,6.53,9.6,10.72,16.81,10.74l10.21.03,10.21.03c7.21.02,13.78-4.13,16.87-10.64l2.39-5.03,15.37.04v-3.33Z"/>
    <path class="cls-4" d="M279.1,213.24l-28.12-.08c-.92,0-1.67-.75-1.66-1.67h0c0-.92.75-1.67,1.67-1.67l28.12.08c.92,0,1.67.75,1.66,1.67h0c0,.92-.75,1.67-1.67,1.67Z"/>
  </g>
  <g>
    <path class="cls-2" d="M394.3,139.77l-.08,44.74c0,1.92-.08,3.84-.22,5.76l-8.27,59.84h-35.72l-8.31-59.72c-.15-2-.22-4-.22-6v-44.62h52.81Z"/>
    <rect class="cls-5" x="348.78" y="242.73" width="38.08" height="7.4" transform="translate(735.63 492.85) rotate(180)"/>
    <path class="cls-5" d="M396.44,133.96v1.52h10.35l9.9,6.27s-.33,24.1-11.55,47.54c0,0-2.64,0-1.98-2.97s2.46-8.35,3.3-11.89c1.65-6.93,4.29-22.12-.33-33.34,0,0-5.36-.54-9.69.94v2.37h-57.26v-10.45h57.26Z"/>
    <rect class="cls-5" x="339.4" y="121.24" width="57.04" height="12.72" transform="translate(735.84 255.2) rotate(180)"/>
    <rect class="cls-5" x="338.08" y="126.3" width="59.69" height="7.65" rx="2.67" ry="2.67" transform="translate(735.84 260.26) rotate(180)"/>
  </g>
</svg>